<?xml version="1.0" encoding="utf-8"?>
<!-- Generator: Adobe Illustrator 23.0.4, SVG Export Plug-In . SVG Version: 6.00 Build 0)  -->
<svg version="1.1" id="Camada_1" xmlns="http://www.w3.org/2000/svg" xmlns:xlink="http://www.w3.org/1999/xlink" x="0px" y="0px"
	 viewBox="0 0 1672 1348" style="enable-background:new 0 0 1672 1348;" xml:space="preserve">
<style type="text/css">
	.st0{fill:none;}
	.st1{writing-mode:tb;}
	.st2{fill:#C18E49;}
	.st3{font-family:'WeePeople-Regular';}
	.st4{font-size:52px;glyph-orientation-vertical:0;}
	.st5{letter-spacing:33;}
	.st6{font-size:52px;glyph-orientation-vertical:1;}
	.st7{letter-spacing:69;}
	.st8{letter-spacing:84;}
	.st9{letter-spacing:52;}
	.st10{letter-spacing:35;}
	.st11{fill:#352E29;}
	.st12{letter-spacing:44;}
	.st13{letter-spacing:17;}
	.st14{letter-spacing:15;}
	.st15{letter-spacing:58;}
	.st16{letter-spacing:11;}
	.st17{letter-spacing:89;}
	.st18{letter-spacing:131;}
	.st19{letter-spacing:30;}
	.st20{letter-spacing:51;}
	.st21{letter-spacing:80;}
	.st22{font-family:'MyriadPro-Regular';}
	.st23{letter-spacing:2;}
	.st24{letter-spacing:45;}
	.st25{letter-spacing:78;}
	.st26{letter-spacing:-3;}
	.st27{letter-spacing:6;}
	.st28{letter-spacing:101;}
	.st29{letter-spacing:22;}
	.st30{letter-spacing:85;}
	.st31{letter-spacing:40;}
	.st32{letter-spacing:70;}
	.st33{letter-spacing:71;}
	.st34{letter-spacing:18;}
	.st35{letter-spacing:160;}
	.st36{letter-spacing:86;}
	.st37{letter-spacing:151;}
	.st38{letter-spacing:28;}
</style>
<circle class="st0" cx="2427.5" cy="642.4" r="650.5"/>
<text transform="matrix(1 0 0 1 2359.843 26.741)"><tspan x="0" y="0" class="st3" style="font-size:52px; letter-spacing:26;">ab</tspan><tspan x="116.3" y="0" class="st3" style="font-size:52px;">-</tspan><tspan x="-138.9" y="30" class="st3" style="font-size:52px; letter-spacing:8;">defghijklm</tspan><tspan x="255.2" y="30" class="st3" style="font-size:52px;">-</tspan><tspan x="-213" y="60" class="st3 st23" style="font-size:52px;">nopqrstuvwyxzabc</tspan><tspan x="329.3" y="60" class="st3" style="font-size:52px;">-</tspan><tspan x="-268.5" y="90" class="st3" style="font-size:52px; letter-spacing:5;">defghijklmnopqrstu</tspan><tspan x="384.8" y="90" class="st3" style="font-size:52px;">-</tspan><tspan x="-313.7" y="120" class="st3" style="font-size:52px; letter-spacing:21;">vwyxzabcdefghi</tspan><tspan x="430" y="120" class="st3" style="font-size:52px;">-</tspan><tspan x="-352" y="150" class="st3" style="font-size:52px; letter-spacing:1;">jklmnopqrstuvwyxzabcdezcd</tspan><tspan x="456.2" y="150" class="st3" style="font-size:52px;">e</tspan><tspan x="-385.2" y="180" class="st3" style="font-size:52px;">fghijklmnopqrstvwyxzabcdefjkl</tspan><tspan x="-414.2" y="210" class="st3" style="font-size:52px; letter-spacing:1;">mnopqrstuvwyxzabcdefghijklmno</tspan><tspan x="518.3" y="210" class="st3" style="font-size:52px;">p</tspan><tspan x="-439.8" y="240" class="st3" style="font-size:52px; letter-spacing:1;">qrstuvwyxzabcdefghijklmnopqrstu</tspan><tspan x="556.1" y="240" class="st3" style="font-size:52px;">-</tspan><tspan x="-462.5" y="270" class="st3" style="font-size:52px; letter-spacing:3;">vwyxzabcdefghijklmnopqrstuvzab</tspan><tspan x="578.8" y="270" class="st3" style="font-size:52px;">-</tspan><tspan x="-482.6" y="300" class="st3" style="font-size:52px;">cdefghijklmnopqrstuvwyxzabcdefghij</tspan><tspan x="586.8" y="300" class="st3" style="font-size:52px;">k</tspan><tspan x="-500.5" y="330" class="st3" style="font-size:52px; letter-spacing:1;">lmnopqrstuvwyxzabcdefghijklmnopqrs</tspan><tspan x="616.8" y="330" class="st3" style="font-size:52px;">-</tspan><tspan x="-516.3" y="360" class="st3" style="font-size:52px; letter-spacing:13;">tuvwyxzabcdefghijklmnopqrs</tspan><tspan x="632.6" y="360" class="st3" style="font-size:52px;">-</tspan><tspan x="-530.1" y="390" class="st3" style="font-size:52px;">tuvwyxzabcdefghijklmnopqrstuvwyxzabcd</tspan><tspan x="634.2" y="390" class="st3" style="font-size:52px;">e</tspan><tspan x="-542.1" y="420" class="st3" style="font-size:52px;">fghijklmnopqrstuvwyxzabcdefghijklmnopqr</tspan><tspan x="-552.5" y="450" class="st3" style="font-size:52px;">stuvwyxzabcdefghijklmnopqrstuvwyxzabcd</tspan><tspan x="656.6" y="450" class="st3" style="font-size:52px;">e</tspan><tspan x="-561.2" y="480" class="st3" style="font-size:52px;">fghijklmnopqrstuvwyxzabcdefghijklmnopqr</tspan><tspan x="666.9" y="480" class="st3" style="font-size:52px;">t</tspan><tspan x="-568.4" y="510" class="st3" style="font-size:52px;">uvwyxzabcdefghijklmnopqrstuvwyxzabcdefg</tspan><tspan x="672.5" y="510" class="st3" style="font-size:52px;">h</tspan><tspan x="-574.1" y="540" class="st3" style="font-size:52px;">ijklmnopqrstuvwyxzabcdefghijklmnopqrstuv</tspan><tspan x="678.2" y="540" class="st3" style="font-size:52px;">w</tspan><tspan x="-578.3" y="570" class="st3" style="font-size:52px; letter-spacing:5;">yxzabcdefghijklmnopqrstuvwyxzabcde</tspan><tspan x="682.5" y="570" class="st3" style="font-size:52px;">f</tspan><tspan x="-581.2" y="600" class="st3" style="font-size:52px;">ghijklmnopqrstuvwyxzabcdefghijklmnopqrstu</tspan><tspan x="694" y="600" class="st3" style="font-size:52px;">-</tspan><tspan x="-582.6" y="630" class="st3" style="font-size:52px; letter-spacing:36;">vwyxzabcdefghijknop</tspan><tspan x="698.9" y="630" class="st3" style="font-size:52px;">-</tspan><tspan x="-581.4" y="660" class="st3" style="font-size:52px;">qrstuvwyxzabcdefghijklmnopqrstuvwyxzabcd</tspan><tspan x="685.5" y="660" class="st3" style="font-size:52px;">e</tspan><tspan x="-578.6" y="690" class="st3" style="font-size:52px;">fghijklmnopqrstuvwyxzabcdefghijklmnopqrs</tspan><tspan x="684.4" y="690" class="st3" style="font-size:52px;">t</tspan><tspan x="-574.5" y="720" class="st3" style="font-size:52px;">uvwyxzabcdefghijklmnopqrstuvwyxzabcdefgh</tspan><tspan x="678.7" y="720" class="st3" style="font-size:52px;">i</tspan><tspan x="-569" y="750" class="st3" style="font-size:52px;">jklmnopqrstuvwyxzabcdefghijklmnopqrstuv</tspan><tspan x="673.1" y="750" class="st3" style="font-size:52px;">w</tspan><tspan x="-561.9" y="780" class="st3 st24" style="font-size:52px;">yxzabcdefghijklm</tspan><tspan x="666" y="780" class="st3" style="font-size:52px;">n</tspan><tspan x="-553.3" y="810" class="st3" style="font-size:52px;">opqrstuvwyxzabcdefghijklmnopqrstuvwyxza</tspan><tspan x="669.6" y="810" class="st3" style="font-size:52px;">-</tspan><tspan x="-543.1" y="840" class="st3" style="font-size:52px;">bcdefghijklmnopqrs</tspan><tspan x="18.1" y="840" class="st3" style="font-size:52px; letter-spacing:-6;">       </tspan><tspan x="193.4" y="840" class="st3" style="font-size:52px;">tvwyxzabcdefghi</tspan><tspan x="659.5" y="840" class="st3" style="font-size:52px;">-</tspan><tspan x="-531.3" y="870" class="st3" style="font-size:52px; letter-spacing:1;">jklmnopqrstuvwyxzabcdefghijklmnopqrs</tspan><tspan x="647.6" y="870" class="st3" style="font-size:52px;">-</tspan><tspan x="-517.6" y="900" class="st3 st8" style="font-size:52px;">tuvwyxzabc</tspan><tspan x="633.9" y="900" class="st3" style="font-size:52px;">-</tspan><tspan x="-502" y="930" class="st3" style="font-size:52px;">defghijklmnopqrstuvwyxzabcdefghijkl</tspan><tspan x="606.1" y="930" class="st3" style="font-size:52px;">m</tspan><tspan x="-484.4" y="960" class="st3" style="font-size:52px;">nopqrstuvwyxzabcdefghjkaaaanopqrst</tspan><tspan x="588.5" y="960" class="st3" style="font-size:52px;">u</tspan><tspan x="-464.4" y="990" class="st3" style="font-size:52px;">vwyxzabcdefghijklmnopqrstuvwyxzab</tspan><tspan x="568.6" y="990" class="st3" style="font-size:52px;">c</tspan><tspan x="-442" y="1020" class="st3" style="font-size:52px;">defghijklmnopqrstuvwyxzabcdefgh</tspan><tspan x="546.1" y="1020" class="st3" style="font-size:52px;">i</tspan><tspan x="-416.6" y="1050" class="st3" style="font-size:52px; letter-spacing:47;">jklmnopqrstu</tspan><tspan x="520.8" y="1050" class="st3" style="font-size:52px;">v</tspan><tspan x="-387.9" y="1080" class="st3" style="font-size:52px; letter-spacing:4;">wyxzabcdefghijklmnopqrstu</tspan><tspan x="504.3" y="1080" class="st3" style="font-size:52px;">-</tspan><tspan x="-355.2" y="1110" class="st3" style="font-size:52px;">vwyxzabcdefghijklmnopqrstu</tspan><tspan x="471.5" y="1110" class="st3" style="font-size:52px;">-</tspan><tspan x="-317.5" y="1140" class="st3" style="font-size:52px;">vwxzagddga</tspan><tspan x="-5.7" y="1140" class="st3" style="font-size:52px;">        </tspan><tspan x="246.7" y="1140" class="st3" style="font-size:52px;">affddd</tspan><tspan x="433.8" y="1140" class="st3" style="font-size:52px;">-</tspan><tspan x="-273" y="1170" class="st3" style="font-size:52px;">dhijklmnopqrstu</tspan><tspan x="193.1" y="1170" class="st3" style="font-size:52px; letter-spacing:4;">  </tspan><tspan x="264.6" y="1170" class="st3" style="font-size:52px;">vwyx</tspan><tspan x="389.3" y="1170" class="st3" style="font-size:52px;">-</tspan><tspan x="-218.6" y="1200" class="st3" style="font-size:52px; letter-spacing:1;">zabcdefghijklmnop</tspan><tspan x="334.9" y="1200" class="st3" style="font-size:52px;">-</tspan><tspan x="-146.9" y="1230" class="st3" style="font-size:52px;">qrstuvwyxzabc</tspan><tspan x="263.2" y="1230" class="st3" style="font-size:52px;">-</tspan><tspan x="-22.5" y="1260" class="st3 st29" style="font-size:52px;">def</tspan><tspan x="138.8" y="1260" class="st3" style="font-size:52px;">-</tspan></text>
<circle class="st0" cx="836" cy="665.3" r="618.3"/>
<text transform="matrix(1 0 0 1 1406.8973 469.2615)" class="st1"><tspan x="0" y="0" class="st2 st3 st4 st5">Lore</tspan><tspan x="0" y="340" class="st2 st3 st4">m</tspan><tspan x="0" y="392" class="st2 st3 st6"> </tspan><tspan x="-30" y="-73.6" class="st2 st3 st4 st7">ipsu</tspan><tspan x="-30" y="413.6" class="st2 st3 st4">m</tspan><tspan x="-30" y="465.6" class="st2 st3 st6"> </tspan><tspan x="-60" y="-128.2" class="st2 st3 st4">dolor</tspan><tspan x="-60" y="131.8" class="st2 st3 st6 st5"> </tspan><tspan x="-60" y="196" class="st2 st3 st4">si</tspan><tspan x="-60" y="300" class="st2 st3 st6 st5"> </tspan><tspan x="-60" y="364.2" class="st2 st3 st4">ame</tspan><tspan x="-60" y="520.2" class="st2 st3 st6"> </tspan><tspan x="-90" y="-172.4" class="st2 st3 st4 st8">conse</tspan><tspan x="-90" y="512.4" class="st2 st3 st4">c</tspan><tspan x="-120" y="-209.7" class="st2 st3 st4">euer</tspan><tspan x="-120" y="-1.7" class="st2 st3 st6 st9"> </tspan><tspan x="-120" y="81.7" class="st2 st3 st4">adipiscing</tspan><tspan x="-120" y="601.7" class="st2 st3 st6"> </tspan><tspan x="-150" y="-241.8" class="st2 st3 st4">eli</tspan><tspan x="-150" y="-85.8" class="st2 st3 st6 st10"> </tspan><tspan x="-150" y="-19.3" class="st2 st3 st4">sed</tspan><tspan x="-150" y="136.7" class="st2 st3 st6 st10"> </tspan><tspan x="-150" y="203.3" class="st2 st3 st4">diam</tspan><tspan x="-150" y="411.3" class="st2 st3 st6 st10"> </tspan><tspan x="-150" y="477.8" class="st2 st3 st4">non</tspan><tspan x="-180" y="-269.8" class="st11 st3 st4">ummy</tspan><tspan x="-180" y="-61.8" class="st11 st3 st6 st12"> </tspan><tspan x="-180" y="14" class="st11 st3 st4">nibh</tspan><tspan x="-180" y="222" class="st11 st3 st6 st12"> </tspan><tspan x="-180" y="297.8" class="st11 st3 st4">euismod</tspan><tspan x="-180" y="661.8" class="st11 st3 st6"> </tspan><tspan x="-210" y="-294.4" class="st11 st3 st4">tinciduntaae</tspan><tspan x="-210" y="329.6" class="st11 st3 st6 st13"> </tspan><tspan x="-210" y="378" class="st11 st3 st4">u</tspan><tspan x="-210" y="430" class="st11 st3 st6 st13"> </tspan><tspan x="-210" y="478.4" class="st11 st3 st4">laor</tspan><tspan x="-240" y="-316.1" class="st11 st3 st4">eet</tspan><tspan x="-240" y="-160.1" class="st11 st3 st6 st14"> </tspan><tspan x="-240" y="-113.3" class="st11 st3 st4">dolore</tspan><tspan x="-240" y="198.7" class="st11 st3 st6 st14"> </tspan><tspan x="-240" y="245.4" class="st11 st3 st4">fmagna</tspan><tspan x="-240" y="557.4" class="st11 st3 st6 st14"> </tspan><tspan x="-240" y="604.1" class="st11 st3 st4">al</tspan><tspan x="-270" y="-335.2" class="st11 st3 st4">iquam</tspan><tspan x="-270" y="-75.2" class="st11 st3 st6 st15"> </tspan><tspan x="-270" y="14" class="st11 st3 st4">erat</tspan><tspan x="-270" y="222" class="st11 st3 st6 st15"> </tspan><tspan x="-270" y="311.2" class="st11 st3 st4">volutpat</tspan><tspan x="-300" y="-352" class="st11 st3 st6 st16"> </tspan><tspan x="-300" y="-309.6" class="st11 st3 st4">Ut</tspan><tspan x="-300" y="-205.6" class="st11 st3 st6 st16"> </tspan><tspan x="-300" y="-163.2" class="st11 st3 st4">wisi</tspan><tspan x="-300" y="44.8" class="st11 st3 st6 st16"> </tspan><tspan x="-300" y="87.2" class="st11 st3 st4">enim</tspan><tspan x="-300" y="295.2" class="st11 st3 st6 st16"> </tspan><tspan x="-300" y="337.6" class="st11 st3 st4">ad</tspan><tspan x="-300" y="441.6" class="st11 st3 st6 st16"> </tspan><tspan x="-300" y="484" class="st11 st3 st4">minim</tspan><tspan x="-300" y="744" class="st11 st3 st6"> </tspan><tspan x="-330" y="-366.7" class="st11 st3 st4">veniam</tspan><tspan x="-330" y="-54.7" class="st11 st3 st6 st17"> </tspan><tspan x="-330" y="66" class="st11 st3 st4">quis</tspan><tspan x="-330" y="274" class="st11 st3 st6 st17"> </tspan><tspan x="-330" y="394.7" class="st11 st3 st4">nostrud</tspan><tspan x="-330" y="758.7" class="st11 st3 st6"> </tspan><tspan x="-360" y="-379.4" class="st11 st3 st4">exercitation</tspan><tspan x="-360" y="244.6" class="st11 st3 st6 st18"> </tspan><tspan x="-360" y="407.5" class="st11 st3 st4">ullamco</tspan><tspan x="-390" y="-390.4" class="st11 st3 st4">rper</tspan><tspan x="-390" y="-182.4" class="st11 st3 st6 st10"> </tspan><tspan x="-390" y="-116" class="st11 st3 st4">suscipit</tspan><tspan x="-390" y="300" class="st11 st3 st6 st10"> </tspan><tspan x="-390" y="366.4" class="st11 st3 st4">lobortis</tspan><tspan x="-420" y="-399.6" class="st11 st3 st6 st19"> </tspan><tspan x="-420" y="-338.1" class="st11 st3 st4">nisl</tspan><tspan x="-420" y="-130.1" class="st11 st3 st6 st19"> </tspan><tspan x="-420" y="-68.7" class="st11 st3 st4">ut</tspan><tspan x="-420" y="35.3" class="st11 st3 st6 st19"> </tspan><tspan x="-420" y="96.7" class="st11 st3 st4">aliquip</tspan><tspan x="-420" y="460.7" class="st11 st3 st6 st19"> </tspan><tspan x="-420" y="522.2" class="st11 st3 st4">ex</tspan><tspan x="-420" y="626.2" class="st11 st3 st6 st19"> </tspan><tspan x="-420" y="687.6" class="st11 st3 st4">ea</tspan><tspan x="-420" y="791.6" class="st11 st3 st6"> </tspan><tspan x="-450" y="-407.1" class="st11 st3 st4">commodo</tspan><tspan x="-450" y="-43.1" class="st11 st3 st6 st20"> </tspan><tspan x="-450" y="40" class="st11 st3 st4">consequat</tspan><tspan x="-450" y="508" class="st11 st3 st6 st20"> </tspan><tspan x="-450" y="591.2" class="st11 st3 st4">Duis</tspan><tspan x="-450" y="799.2" class="st11 st3 st6"> </tspan><tspan x="-480" y="-413.1" class="st11 st3 st4">autem</tspan><tspan x="-480" y="-153.1" class="st11 st3 st6 st21"> </tspan><tspan x="-480" y="-41.7" class="st11 st3 st4">vel</tspan><tspan x="-480" y="114.3" class="st11 st3 st6 st21"> </tspan><tspan x="-480" y="225.7" class="st11 st3 st4">eum</tspan><tspan x="-480" y="381.7" class="st11 st3 st6 st21"> </tspan><tspan x="-480" y="493.1" class="st11 st3 st4">iriure</tspan><tspan x="-480" y="805.1" class="st11 st3 st6"> </tspan><tspan x="-510" y="-417.6" class="st11 st3 st4">dolor</tspan><tspan x="-510" y="-157.6" class="st11 st3 st6 st14"> </tspan><tspan x="-510" y="-110.8" class="st11 st3 st4">in</tspan><tspan x="-510" y="-6.8" class="st11 st3 st6 st14"> </tspan><tspan x="-510" y="40" class="st11 st3 st4">hendrerit</tspan><tspan x="-510" y="508" class="st11 st3 st6 st14"> </tspan><tspan x="-510" y="554.8" class="st11 st3 st4">in</tspan><tspan x="-510" y="658.8" class="st11 st3 st6 st14"> </tspan><tspan x="-510" y="705.6" class="st11 st3 st4">vu</tspan><tspan x="-540" y="-420.5" class="st11 st3 st4">lputate</tspan><tspan x="-540" y="-56.5" class="st11 st3 st6 st5"> </tspan><tspan x="-540" y="7.8" class="st11 st3 st4">velit</tspan><tspan x="-540" y="267.8" class="st11 st3 st6 st5"> </tspan><tspan x="-540" y="332.2" class="st11 st3 st4">esse</tspan><tspan x="-540" y="540.2" class="st11 st3 st6 st5"> </tspan><tspan x="-540" y="604.6" class="st11 st3 st4">mole</tspan><tspan x="-570" y="-422" class="st11 st3 st4">stie</tspan><tspan x="-570" y="-214" class="st11 st3 st6"> </tspan><tspan x="-570" y="-183.3" class="st11 st3 st4">consequat</tspan><tspan x="-570" y="284.7" class="st11 st22 st4">,</tspan><tspan x="-570" y="336.7" class="st11 st3 st6"> </tspan><tspan x="-570" y="367.4" class="st11 st3 st4">vel</tspan><tspan x="-570" y="523.4" class="st11 st3 st6"> </tspan><tspan x="-570" y="554" class="st11 st3 st4">illum</tspan><tspan x="-570" y="814" class="st11 st3 st6"> </tspan><tspan x="-600" y="-420.7" class="st11 st3 st4">dolore</tspan><tspan x="-600" y="-108.7" class="st11 st3 st6 st14"> </tspan><tspan x="-600" y="-61.5" class="st11 st3 st4">eu</tspan><tspan x="-600" y="42.5" class="st11 st3 st6 st14"> </tspan><tspan x="-600" y="89.6" class="st11 st3 st4">feugivat</tspan><tspan x="-600" y="505.6" class="st11 st3 st6 st14"> </tspan><tspan x="-600" y="552.7" class="st11 st3 st4">nulla</tspan><tspan x="-600" y="812.7" class="st11 st3 st6"> </tspan><tspan x="-630" y="-417.8" class="st11 st3 st4">facilisis</tspan><tspan x="-630" y="50.2" class="st11 st3 st6 st23"> </tspan><tspan x="-630" y="84.1" class="st11 st3 st4">at</tspan><tspan x="-630" y="188.1" class="st11 st3 st6 st23"> </tspan><tspan x="-630" y="222" class="st11 st3 st4">vero</tspan><tspan x="-630" y="430" class="st11 st3 st6 st23"> </tspan><tspan x="-630" y="463.9" class="st11 st3 st4">eros</tspan><tspan x="-630" y="671.9" class="st11 st3 st6 st23"> </tspan><tspan x="-630" y="705.8" class="st11 st3 st4">et</tspan><tspan x="-630" y="809.8" class="st11 st3 st6"> </tspan><tspan x="-660" y="-413.4" class="st2 st3 st4">accumsan</tspan><tspan x="-660" y="2.6" class="st2 st3 st6 st24"> </tspan><tspan x="-660" y="79.5" class="st2 st3 st4">et</tspan><tspan x="-660" y="183.5" class="st2 st3 st6 st24"> </tspan><tspan x="-660" y="260.5" class="st2 st3 st4">iusto</tspan><tspan x="-660" y="520.5" class="st2 st3 st6 st24"> </tspan><tspan x="-660" y="597.4" class="st2 st3 st4">odio</tspan><tspan x="-660" y="805.4" class="st2 st3 st6"> </tspan><tspan x="-690" y="-407.5" class="st2 st3 st4">dignissim</tspan><tspan x="-690" y="60.5" class="st2 st3 st6 st25"> </tspan><tspan x="-690" y="170" class="st2 st3 st4">qabhsui</tspan><tspan x="-690" y="534" class="st2 st3 st6 st25"> </tspan><tspan x="-690" y="643.5" class="st2 st3 st4">bla</tspan><tspan x="-720" y="-400.1" class="st2 st3 st4">ndit</tspan><tspan x="-720" y="-192.1" class="st2 st3 st6 st12"> </tspan><tspan x="-720" y="-116" class="st2 st3 st4">praesent</tspan><tspan x="-720" y="300" class="st2 st3 st6 st12"> </tspan><tspan x="-720" y="376.1" class="st2 st3 st4">luptatum</tspan><tspan x="-720" y="792.1" class="st2 st3 st6"> </tspan><tspan x="-750" y="-391" class="st2 st3 st4">zzril</tspan><tspan x="-750" y="-131" class="st2 st3 st6 st26"> </tspan><tspan x="-750" y="-103.6" class="st2 st3 st4">delenit</tspan><tspan x="-750" y="260.4" class="st2 st3 st6 st26"> </tspan><tspan x="-750" y="287.7" class="st2 st3 st4">augue</tspan><tspan x="-750" y="547.7" class="st2 st3 st6 st26"> </tspan><tspan x="-750" y="575" class="st2 st3 st4">duis</tspan><tspan x="-750" y="783" class="st2 st3 st6"> </tspan><tspan x="-780" y="-380.1" class="st2 st3 st4">dolore</tspan><tspan x="-780" y="-68.1" class="st2 st3 st6 st27"> </tspan><tspan x="-780" y="-30.7" class="st2 st3 st4">te</tspan><tspan x="-780" y="73.3" class="st2 st3 st6 st27"> </tspan><tspan x="-780" y="110.7" class="st2 st3 st4">feugait</tspan><tspan x="-780" y="474.7" class="st2 st3 st6 st27"> </tspan><tspan x="-780" y="512.2" class="st2 st3 st4">nulla</tspan><tspan x="-780" y="772.2" class="st2 st3 st6"> </tspan><tspan x="-810" y="-367.5" class="st2 st3 st4 st28">facilis</tspan><tspan x="-810" y="707.5" class="st2 st3 st4">i</tspan><tspan x="-840" y="-352.9" class="st2 st3 st4">Lorem</tspan><tspan x="-840" y="-92.9" class="st2 st3 st6 st29"> </tspan><tspan x="-840" y="-39" class="st2 st3 st4">ipsum</tspan><tspan x="-840" y="221" class="st2 st3 st6 st29"> </tspan><tspan x="-840" y="275" class="st2 st3 st4">dolor</tspan><tspan x="-840" y="535" class="st2 st3 st6 st29"> </tspan><tspan x="-840" y="588.9" class="st2 st3 st4">sit</tspan><tspan x="-840" y="744.9" class="st2 st3 st6"> </tspan><tspan x="-870" y="-336.2" class="st2 st3 st4">amet</tspan><tspan x="-870" y="-128.2" class="st2 st3 st6 st30"> </tspan><tspan x="-870" y="-12" class="st2 st3 st4">cons</tspan><tspan x="-870" y="196" class="st2 st3 st6 st30"> </tspan><tspan x="-870" y="312.3" class="st2 st3 st4">ectetuer</tspan><tspan x="-870" y="728.3" class="st2 st3 st6"> </tspan><tspan x="-900" y="-317.3" class="st2 st3 st4">adipiscing</tspan><tspan x="-900" y="202.7" class="st2 st3 st6 st31"> </tspan><tspan x="-900" y="274" class="st2 st3 st4">elit</tspan><tspan x="-900" y="482" class="st2 st3 st6 st31"> </tspan><tspan x="-900" y="553.3" class="st2 st3 st4">sed</tspan><tspan x="-900" y="709.3" class="st2 st3 st6"> </tspan><tspan x="-930" y="-295.8" class="st2 st3 st4">diam</tspan><tspan x="-930" y="-87.8" class="st2 st3 st6 st32"> </tspan><tspan x="-930" y="14" class="st2 st3 st4">nonummy</tspan><tspan x="-930" y="378" class="st2 st3 st6 st32"> </tspan><tspan x="-930" y="479.8" class="st2 st3 st4">nibh</tspan><tspan x="-930" y="687.8" class="st2 st3 st6"> </tspan><tspan x="-960" y="-271.4" class="st2 st3 st4">euismod</tspan><tspan x="-960" y="92.6" class="st2 st3 st6 st33"> </tspan><tspan x="-960" y="195.4" class="st2 st3 st4">tincidunt</tspan><tspan x="-960" y="663.4" class="st2 st3 st6"> </tspan><tspan x="-990" y="-243.6" class="st2 st3 st4">ut</tspan><tspan x="-990" y="-139.6" class="st2 st3 st6 st34"> </tspan><tspan x="-990" y="-90" class="st2 st3 st4">laoreet</tspan><tspan x="-990" y="274" class="st2 st3 st6 st34"> </tspan><tspan x="-990" y="323.6" class="st2 st3 st4">dolore</tspan><tspan x="-990" y="635.6" class="st2 st3 st6"> </tspan><tspan x="-1020" y="-211.7" class="st2 st3 st4">magna</tspan><tspan x="-1020" y="48.3" class="st2 st3 st6 st35"> </tspan><tspan x="-1020" y="239.8" class="st2 st3 st4">aliquam</tspan><tspan x="-1020" y="603.8" class="st2 st3 st6"> </tspan><tspan x="-1050" y="-174.8" class="st2 st3 st4">erat</tspan><tspan x="-1050" y="33.2" class="st2 st3 st6 st36"> </tspan><tspan x="-1050" y="150.8" class="st2 st3 st4">volutpat</tspan><tspan x="-1050" y="566.8" class="st2 st3 st6"> </tspan><tspan x="-1080" y="-131.1" class="st2 st3 st4">Ut</tspan><tspan x="-1080" y="-27.1" class="st2 st3 st6 st10"> </tspan><tspan x="-1080" y="40" class="st2 st3 st4">wisi</tspan><tspan x="-1080" y="248" class="st2 st3 st6 st10"> </tspan><tspan x="-1080" y="315.1" class="st2 st3 st4">enim</tspan><tspan x="-1080" y="523.1" class="st2 st3 st6"> </tspan><tspan x="-1110" y="-77.2" class="st2 st3 st4">ad</tspan><tspan x="-1110" y="26.8" class="st2 st3 st6 st37"> </tspan><tspan x="-1110" y="209.2" class="st2 st3 st4">minim</tspan><tspan x="-1110" y="469.2" class="st2 st3 st6"> </tspan><tspan x="-1140" y="-5.3" class="st2 st3 st4 st34">venia</tspan><tspan x="-1140" y="345.3" class="st2 st3 st4">m</tspan><tspan x="-1140" y="397.3" class="st2 st3 st6"> </tspan><tspan x="-1170" y="129.8" class="st2 st3 st4 st38">q</tspan><tspan x="-1170" y="210.2" class="st2 st3 st4">u</tspan></text>
<text transform="matrix(1 0 0 1 -56.1539 779.5957)" class="st1"><tspan x="0" y="0" class="st11 st3 st6"> </tspan><tspan x="0" y="31.2" class="st11 st3 st4">e</tspan></text>
</svg>
